<svg width="305" height="36" viewBox="0 0 305 36" fill="none" xmlns="http://www.w3.org/2000/svg">
<path d="M53.168 20.904C53.168 22.1627 52.8533 23.2827 52.224 24.264C51.5947 25.2347 50.6827 25.9973 49.488 26.552C48.2933 27.096 46.8373 27.368 45.12 27.368C43.5093 27.368 42.048 27.1227 40.736 26.632C39.4347 26.1413 38.32 25.448 37.392 24.552L39.04 22.696C39.808 23.4107 40.688 23.9813 41.68 24.408C42.672 24.824 43.8347 25.032 45.168 25.032C46.064 25.032 46.9013 24.888 47.68 24.6C48.4587 24.3013 49.088 23.8533 49.568 23.256C50.048 22.648 50.288 21.88 50.288 20.952C50.288 20.2373 50.1493 19.6293 49.872 19.128C49.5947 18.6267 49.104 18.184 48.4 17.8C47.696 17.4053 46.7147 17.0213 45.456 16.648C44.0053 16.2213 42.7467 15.7413 41.68 15.208C40.624 14.664 39.8027 13.9973 39.216 13.208C38.64 12.4187 38.352 11.4427 38.352 10.28C38.352 9.18133 38.656 8.20533 39.264 7.352C39.872 6.49867 40.7093 5.832 41.776 5.352C42.8533 4.86133 44.0907 4.616 45.488 4.616C47.0133 4.616 48.336 4.83467 49.456 5.272C50.5867 5.69867 51.6107 6.31733 52.528 7.128L50.896 8.936C50.1067 8.232 49.2587 7.72533 48.352 7.416C47.4453 7.096 46.5227 6.936 45.584 6.936C44.784 6.936 44.048 7.05867 43.376 7.304C42.7147 7.53867 42.1813 7.896 41.776 8.376C41.3813 8.84533 41.184 9.448 41.184 10.184C41.184 10.8133 41.3547 11.3573 41.696 11.816C42.0373 12.2747 42.6133 12.696 43.424 13.08C44.2347 13.4533 45.3387 13.848 46.736 14.264C47.8773 14.5947 48.9333 15.0107 49.904 15.512C50.8853 16.0027 51.6747 16.6747 52.272 17.528C52.8693 18.3707 53.168 19.496 53.168 20.904ZM72.0675 23.32C72.0675 23.992 72.1795 24.4827 72.4035 24.792C72.6275 25.1013 72.9742 25.3307 73.4435 25.48L72.7875 27.368C72.0622 27.272 71.4275 27.0427 70.8835 26.68C70.3395 26.3067 69.9448 25.7467 69.6995 25C69.0915 25.7787 68.3342 26.3707 67.4275 26.776C66.5208 27.1707 65.5182 27.368 64.4195 27.368C62.7342 27.368 61.4062 26.8933 60.4355 25.944C59.4648 24.9947 58.9795 23.736 58.9795 22.168C58.9795 20.4293 59.6568 19.096 61.0115 18.168C62.3662 17.24 64.3235 16.776 66.8835 16.776H69.3635V15.368C69.3635 14.152 69.0062 13.2933 68.2915 12.792C67.5875 12.28 66.6062 12.024 65.3475 12.024C64.7928 12.024 64.1422 12.0933 63.3955 12.232C62.6488 12.36 61.8382 12.5787 60.9635 12.888L60.2595 10.856C61.2942 10.472 62.2648 10.2 63.1715 10.04C64.0782 9.88 64.9422 9.8 65.7635 9.8C67.8648 9.8 69.4382 10.2907 70.4835 11.272C71.5395 12.2427 72.0675 13.5653 72.0675 15.24V23.32ZM65.1075 25.32C65.9395 25.32 66.7342 25.112 67.4915 24.696C68.2488 24.2693 68.8728 23.6827 69.3635 22.936V18.6H66.9315C65.0755 18.6 63.7635 18.92 62.9955 19.56C62.2382 20.2 61.8595 21.0587 61.8595 22.136C61.8595 23.1813 62.1262 23.976 62.6595 24.52C63.2035 25.0533 64.0195 25.32 65.1075 25.32ZM91.895 9.8C92.439 9.8 92.9563 9.91733 93.447 10.152C93.9483 10.3867 94.359 10.84 94.679 11.512C94.999 12.184 95.159 13.1653 95.159 14.456V27H92.663V14.888C92.663 13.832 92.599 13.0693 92.471 12.6C92.343 12.1307 91.975 11.896 91.367 11.896C90.8657 11.896 90.3643 12.056 89.863 12.376C89.3723 12.6853 88.8923 13.1973 88.423 13.912V27H85.911V14.888C85.911 13.832 85.847 13.0693 85.719 12.6C85.591 12.1307 85.223 11.896 84.615 11.896C84.0923 11.896 83.5857 12.056 83.095 12.376C82.615 12.6853 82.1403 13.1973 81.671 13.912V27H79.191V10.152H81.303L81.463 12.104C81.9217 11.4533 82.4337 10.9093 82.999 10.472C83.575 10.024 84.2843 9.8 85.127 9.8C85.767 9.8 86.3697 9.95467 86.935 10.264C87.5003 10.5627 87.9163 11.1493 88.183 12.024C88.6417 11.3627 89.159 10.8293 89.735 10.424C90.311 10.008 91.031 9.8 91.895 9.8ZM109.115 9.8C110.608 9.8 111.797 10.1627 112.682 10.888C113.578 11.6133 114.224 12.6373 114.618 13.96C115.013 15.272 115.211 16.808 115.211 18.568C115.211 20.264 114.971 21.7787 114.49 23.112C114.021 24.4347 113.306 25.4747 112.346 26.232C111.386 26.9893 110.176 27.368 108.714 27.368C106.869 27.368 105.386 26.7173 104.266 25.416V33.448L101.578 33.784V10.152H103.866L104.09 12.504C104.709 11.64 105.445 10.9733 106.298 10.504C107.162 10.0347 108.101 9.8 109.115 9.8ZM108.474 11.96C107.546 11.96 106.725 12.2427 106.01 12.808C105.306 13.3627 104.725 13.9813 104.266 14.664V23.016C104.704 23.6667 105.253 24.184 105.914 24.568C106.586 24.9413 107.322 25.128 108.122 25.128C109.52 25.128 110.571 24.5947 111.274 23.528C111.978 22.4613 112.33 20.8027 112.33 18.552C112.33 17.08 112.192 15.8587 111.915 14.888C111.637 13.9067 111.216 13.176 110.65 12.696C110.085 12.2053 109.36 11.96 108.474 11.96ZM128.926 3.368V22.84C128.926 23.672 129.182 24.264 129.694 24.616C130.217 24.9573 130.889 25.128 131.71 25.128C132.222 25.128 132.707 25.0747 133.166 24.968C133.625 24.8613 134.083 24.7173 134.542 24.536L135.262 26.504C134.803 26.728 134.233 26.9253 133.55 27.096C132.878 27.2773 132.115 27.368 131.262 27.368C129.769 27.368 128.558 26.9573 127.63 26.136C126.702 25.304 126.238 24.1573 126.238 22.696V5.496H121.07V3.368H128.926ZM145.266 19.528C145.319 20.8293 145.57 21.896 146.018 22.728C146.466 23.5493 147.058 24.1573 147.794 24.552C148.53 24.936 149.33 25.128 150.194 25.128C151.058 25.128 151.836 25 152.53 24.744C153.234 24.488 153.954 24.1093 154.69 23.608L155.954 25.384C155.164 26.0027 154.263 26.488 153.25 26.84C152.247 27.192 151.218 27.368 150.162 27.368C148.53 27.368 147.138 27 145.986 26.264C144.834 25.528 143.954 24.504 143.346 23.192C142.748 21.8693 142.45 20.3387 142.45 18.6C142.45 16.8933 142.754 15.3787 143.362 14.056C143.97 12.7333 144.823 11.6933 145.922 10.936C147.02 10.1787 148.316 9.8 149.81 9.8C151.228 9.8 152.45 10.136 153.474 10.808C154.498 11.4693 155.282 12.4187 155.826 13.656C156.38 14.8827 156.658 16.3493 156.658 18.056C156.658 18.344 156.652 18.616 156.642 18.872C156.631 19.1173 156.615 19.336 156.594 19.528H145.266ZM149.842 12.008C148.594 12.008 147.548 12.4507 146.706 13.336C145.874 14.2213 145.399 15.592 145.282 17.448H154.066C154.034 15.6453 153.639 14.2907 152.882 13.384C152.124 12.4667 151.111 12.008 149.842 12.008ZM196.232 15.88C196.232 13.96 196.03 12.424 195.624 11.272C195.219 10.12 194.686 9.256 194.024 8.68C193.363 8.104 192.638 7.72 191.848 7.528C191.07 7.336 190.302 7.24 189.544 7.24H186.952V24.776H189.576C190.366 24.776 191.15 24.6533 191.928 24.408C192.718 24.152 193.438 23.704 194.088 23.064C194.739 22.4133 195.256 21.512 195.64 20.36C196.035 19.1973 196.232 17.704 196.232 15.88ZM199.192 15.88C199.192 17.7147 198.995 19.2827 198.6 20.584C198.216 21.8747 197.688 22.9413 197.016 23.784C196.344 24.6267 195.576 25.2827 194.712 25.752C193.859 26.2107 192.958 26.536 192.008 26.728C191.07 26.9093 190.147 27 189.24 27H184.184V4.968H188.888C190.179 4.968 191.432 5.112 192.648 5.4C193.875 5.688 194.979 6.22133 195.96 7C196.952 7.768 197.736 8.86667 198.312 10.296C198.899 11.7253 199.192 13.5867 199.192 15.88ZM207.628 19.528C207.681 20.8293 207.932 21.896 208.38 22.728C208.828 23.5493 209.42 24.1573 210.156 24.552C210.892 24.936 211.692 25.128 212.556 25.128C213.42 25.128 214.199 25 214.892 24.744C215.596 24.488 216.316 24.1093 217.052 23.608L218.316 25.384C217.527 26.0027 216.625 26.488 215.612 26.84C214.609 27.192 213.58 27.368 212.524 27.368C210.892 27.368 209.5 27 208.348 26.264C207.196 25.528 206.316 24.504 205.708 23.192C205.111 21.8693 204.812 20.3387 204.812 18.6C204.812 16.8933 205.116 15.3787 205.724 14.056C206.332 12.7333 207.185 11.6933 208.284 10.936C209.383 10.1787 210.679 9.8 212.172 9.8C213.591 9.8 214.812 10.136 215.836 10.808C216.86 11.4693 217.644 12.4187 218.188 13.656C218.743 14.8827 219.02 16.3493 219.02 18.056C219.02 18.344 219.015 18.616 219.004 18.872C218.993 19.1173 218.977 19.336 218.956 19.528H207.628ZM212.204 12.008C210.956 12.008 209.911 12.4507 209.068 13.336C208.236 14.2213 207.761 15.592 207.644 17.448H216.428C216.396 15.6453 216.001 14.2907 215.244 13.384C214.487 12.4667 213.473 12.008 212.204 12.008ZM232.031 25.144C233.322 25.144 234.341 24.904 235.087 24.424C235.845 23.9333 236.223 23.2827 236.223 22.472C236.223 21.96 236.127 21.5173 235.935 21.144C235.754 20.7707 235.375 20.4347 234.799 20.136C234.223 19.8373 233.338 19.5387 232.143 19.24C230.981 18.952 229.967 18.6213 229.103 18.248C228.25 17.864 227.583 17.368 227.103 16.76C226.634 16.152 226.399 15.3627 226.399 14.392C226.399 13.4427 226.666 12.6267 227.199 11.944C227.743 11.2507 228.495 10.7227 229.455 10.36C230.415 9.98667 231.53 9.8 232.799 9.8C234.154 9.8 235.333 9.98133 236.335 10.344C237.349 10.696 238.207 11.1333 238.911 11.656L237.727 13.48C237.087 13.0427 236.383 12.6853 235.615 12.408C234.847 12.12 233.919 11.976 232.831 11.976C231.509 11.976 230.57 12.184 230.015 12.6C229.461 13.0053 229.183 13.5333 229.183 14.184C229.183 14.6747 229.317 15.0853 229.583 15.416C229.861 15.736 230.325 16.0293 230.975 16.296C231.626 16.552 232.522 16.8347 233.663 17.144C234.762 17.432 235.717 17.7787 236.527 18.184C237.349 18.5893 237.989 19.1227 238.447 19.784C238.906 20.4453 239.135 21.2987 239.135 22.344C239.135 23.5387 238.794 24.5093 238.111 25.256C237.429 25.992 236.543 26.5307 235.455 26.872C234.378 27.2027 233.237 27.368 232.031 27.368C230.506 27.368 229.205 27.1493 228.127 26.712C227.061 26.264 226.165 25.7253 225.439 25.096L226.975 23.32C227.637 23.864 228.394 24.3067 229.247 24.648C230.111 24.9787 231.039 25.144 232.031 25.144ZM255.619 10.152V24.872H260.371V27H247.731V24.872H252.931V12.28H247.891V10.152H255.619ZM253.475 2.264C254.072 2.264 254.547 2.44533 254.899 2.808C255.262 3.17067 255.443 3.61333 255.443 4.136C255.443 4.68 255.262 5.13867 254.899 5.512C254.547 5.87467 254.072 6.056 253.475 6.056C252.91 6.056 252.446 5.87467 252.083 5.512C251.72 5.13867 251.539 4.68 251.539 4.136C251.539 3.61333 251.72 3.17067 252.083 2.808C252.446 2.44533 252.91 2.264 253.475 2.264ZM281.575 8.36L282.407 10.888C281.692 11.112 280.929 11.2507 280.119 11.304C279.308 11.3573 278.428 11.384 277.479 11.384C278.449 11.832 279.18 12.4133 279.671 13.128C280.161 13.832 280.407 14.664 280.407 15.624C280.407 16.7333 280.156 17.72 279.655 18.584C279.153 19.448 278.428 20.1253 277.479 20.616C276.54 21.1067 275.404 21.352 274.071 21.352C273.505 21.352 273.031 21.3253 272.647 21.272C272.273 21.2187 271.911 21.1387 271.559 21.032C271.303 21.2027 271.089 21.4373 270.919 21.736C270.759 22.0347 270.679 22.344 270.679 22.664C270.679 23.0693 270.839 23.4053 271.159 23.672C271.479 23.9387 272.071 24.072 272.935 24.072H275.975C277.105 24.072 278.119 24.2747 279.015 24.68C279.921 25.0853 280.631 25.6293 281.143 26.312C281.665 26.9947 281.927 27.7733 281.927 28.648C281.927 30.3013 281.223 31.5707 279.815 32.456C278.417 33.3413 276.439 33.784 273.879 33.784C272.087 33.784 270.673 33.5973 269.639 33.224C268.604 32.8613 267.863 32.3013 267.415 31.544C266.977 30.7973 266.759 29.8533 266.759 28.712H269.191C269.191 29.3627 269.319 29.9013 269.575 30.328C269.831 30.7547 270.295 31.0693 270.967 31.272C271.639 31.4853 272.604 31.592 273.863 31.592C275.1 31.592 276.108 31.4853 276.887 31.272C277.676 31.0693 278.257 30.76 278.631 30.344C279.015 29.9387 279.207 29.432 279.207 28.824C279.207 28.024 278.844 27.4213 278.119 27.016C277.393 26.6107 276.487 26.408 275.399 26.408H272.391C270.94 26.408 269.868 26.088 269.175 25.448C268.492 24.808 268.151 24.072 268.151 23.24C268.151 22.696 268.305 22.168 268.615 21.656C268.935 21.144 269.399 20.6907 270.007 20.296C269.036 19.784 268.321 19.1493 267.863 18.392C267.404 17.6347 267.175 16.7173 267.175 15.64C267.175 14.4987 267.457 13.4907 268.023 12.616C268.588 11.7307 269.377 11.0373 270.391 10.536C271.404 10.0347 272.572 9.784 273.895 9.784C275.313 9.77333 276.465 9.71467 277.351 9.608C278.236 9.49067 278.993 9.32533 279.623 9.112C280.263 8.89867 280.913 8.648 281.575 8.36ZM273.895 11.752C272.54 11.752 271.537 12.12 270.887 12.856C270.247 13.5813 269.927 14.5093 269.927 15.64C269.927 16.7813 270.257 17.72 270.919 18.456C271.58 19.192 272.593 19.56 273.959 19.56C275.153 19.56 276.06 19.2133 276.679 18.52C277.308 17.8267 277.623 16.8613 277.623 15.624C277.623 14.3547 277.308 13.3947 276.679 12.744C276.06 12.0827 275.132 11.752 273.895 11.752ZM288.666 27V10.152H290.954L291.162 12.488C291.845 11.624 292.698 10.9627 293.722 10.504C294.757 10.0347 295.759 9.8 296.73 9.8C298.383 9.8 299.583 10.2373 300.33 11.112C301.087 11.9867 301.466 13.2027 301.466 14.76V27H298.778V16.744C298.778 15.592 298.714 14.664 298.586 13.96C298.458 13.2453 298.191 12.728 297.786 12.408C297.381 12.0773 296.751 11.912 295.898 11.912C295.237 11.912 294.613 12.056 294.026 12.344C293.45 12.632 292.933 12.9947 292.474 13.432C292.026 13.8587 291.653 14.2907 291.354 14.728V27H288.666Z" fill="black"/>
<path d="M15.592 9.212C16.672 9.212 17.576 9.348 18.304 9.62C19.032 9.892 19.724 10.292 20.38 10.82L19.216 12.176C18.696 11.736 18.144 11.424 17.56 11.24C16.984 11.048 16.38 10.952 15.748 10.952C14.844 10.952 14.008 11.168 13.24 11.6C12.472 12.024 11.852 12.732 11.38 13.724C10.916 14.708 10.684 16.044 10.684 17.732C10.684 19.372 10.904 20.688 11.344 21.68C11.792 22.672 12.396 23.388 13.156 23.828C13.916 24.268 14.764 24.488 15.7 24.488C16.628 24.488 17.388 24.348 17.98 24.068C18.58 23.788 19.1 23.468 19.54 23.108L20.62 24.476C20.116 24.964 19.46 25.388 18.652 25.748C17.844 26.1 16.852 26.276 15.676 26.276C14.34 26.276 13.128 25.948 12.04 25.292C10.96 24.636 10.104 23.676 9.472 22.412C8.84 21.14 8.524 19.58 8.524 17.732C8.524 15.876 8.844 14.316 9.484 13.052C10.132 11.788 10.992 10.832 12.064 10.184C13.144 9.536 14.32 9.212 15.592 9.212Z" fill="black"/>
<circle cx="14" cy="18" r="13.5" stroke="black"/>
</svg>
