<svg width="265" height="32" viewBox="0 0 265 32" fill="none" xmlns="http://www.w3.org/2000/svg">
<path d="M16.168 18.904C16.168 20.1627 15.8533 21.2827 15.224 22.264C14.5947 23.2347 13.6827 23.9973 12.488 24.552C11.2933 25.096 9.83733 25.368 8.12 25.368C6.50933 25.368 5.048 25.1227 3.736 24.632C2.43467 24.1413 1.32 23.448 0.392 22.552L2.04 20.696C2.808 21.4107 3.688 21.9813 4.68 22.408C5.672 22.824 6.83467 23.032 8.168 23.032C9.064 23.032 9.90133 22.888 10.68 22.6C11.4587 22.3013 12.088 21.8533 12.568 21.256C13.048 20.648 13.288 19.88 13.288 18.952C13.288 18.2373 13.1493 17.6293 12.872 17.128C12.5947 16.6267 12.104 16.184 11.4 15.8C10.696 15.4053 9.71467 15.0213 8.456 14.648C7.00533 14.2213 5.74667 13.7413 4.68 13.208C3.624 12.664 2.80267 11.9973 2.216 11.208C1.64 10.4187 1.352 9.44267 1.352 8.28C1.352 7.18133 1.656 6.20533 2.264 5.352C2.872 4.49867 3.70933 3.832 4.776 3.352C5.85333 2.86133 7.09067 2.616 8.488 2.616C10.0133 2.616 11.336 2.83467 12.456 3.272C13.5867 3.69867 14.6107 4.31733 15.528 5.128L13.896 6.936C13.1067 6.232 12.2587 5.72533 11.352 5.416C10.4453 5.096 9.52267 4.936 8.584 4.936C7.784 4.936 7.048 5.05867 6.376 5.304C5.71467 5.53867 5.18133 5.896 4.776 6.376C4.38133 6.84533 4.184 7.448 4.184 8.184C4.184 8.81333 4.35467 9.35733 4.696 9.816C5.03733 10.2747 5.61333 10.696 6.424 11.08C7.23467 11.4533 8.33867 11.848 9.736 12.264C10.8773 12.5947 11.9333 13.0107 12.904 13.512C13.8853 14.0027 14.6747 14.6747 15.272 15.528C15.8693 16.3707 16.168 17.496 16.168 18.904ZM35.0675 21.32C35.0675 21.992 35.1795 22.4827 35.4035 22.792C35.6275 23.1013 35.9742 23.3307 36.4435 23.48L35.7875 25.368C35.0622 25.272 34.4275 25.0427 33.8835 24.68C33.3395 24.3067 32.9448 23.7467 32.6995 23C32.0915 23.7787 31.3342 24.3707 30.4275 24.776C29.5208 25.1707 28.5182 25.368 27.4195 25.368C25.7342 25.368 24.4062 24.8933 23.4355 23.944C22.4648 22.9947 21.9795 21.736 21.9795 20.168C21.9795 18.4293 22.6568 17.096 24.0115 16.168C25.3662 15.24 27.3235 14.776 29.8835 14.776H32.3635V13.368C32.3635 12.152 32.0062 11.2933 31.2915 10.792C30.5875 10.28 29.6062 10.024 28.3475 10.024C27.7928 10.024 27.1422 10.0933 26.3955 10.232C25.6488 10.36 24.8382 10.5787 23.9635 10.888L23.2595 8.856C24.2942 8.472 25.2648 8.2 26.1715 8.04C27.0782 7.88 27.9422 7.8 28.7635 7.8C30.8648 7.8 32.4382 8.29067 33.4835 9.272C34.5395 10.2427 35.0675 11.5653 35.0675 13.24V21.32ZM28.1075 23.32C28.9395 23.32 29.7342 23.112 30.4915 22.696C31.2488 22.2693 31.8728 21.6827 32.3635 20.936V16.6H29.9315C28.0755 16.6 26.7635 16.92 25.9955 17.56C25.2382 18.2 24.8595 19.0587 24.8595 20.136C24.8595 21.1813 25.1262 21.976 25.6595 22.52C26.2035 23.0533 27.0195 23.32 28.1075 23.32ZM54.895 7.8C55.439 7.8 55.9563 7.91733 56.447 8.152C56.9483 8.38667 57.359 8.84 57.679 9.512C57.999 10.184 58.159 11.1653 58.159 12.456V25H55.663V12.888C55.663 11.832 55.599 11.0693 55.471 10.6C55.343 10.1307 54.975 9.896 54.367 9.896C53.8657 9.896 53.3643 10.056 52.863 10.376C52.3723 10.6853 51.8923 11.1973 51.423 11.912V25H48.911V12.888C48.911 11.832 48.847 11.0693 48.719 10.6C48.591 10.1307 48.223 9.896 47.615 9.896C47.0923 9.896 46.5857 10.056 46.095 10.376C45.615 10.6853 45.1403 11.1973 44.671 11.912V25H42.191V8.152H44.303L44.463 10.104C44.9217 9.45333 45.4337 8.90933 45.999 8.472C46.575 8.024 47.2843 7.8 48.127 7.8C48.767 7.8 49.3697 7.95467 49.935 8.264C50.5003 8.56267 50.9163 9.14933 51.183 10.024C51.6417 9.36267 52.159 8.82933 52.735 8.424C53.311 8.008 54.031 7.8 54.895 7.8ZM72.1145 7.8C73.6078 7.8 74.7972 8.16267 75.6825 8.888C76.5785 9.61333 77.2238 10.6373 77.6185 11.96C78.0132 13.272 78.2105 14.808 78.2105 16.568C78.2105 18.264 77.9705 19.7787 77.4905 21.112C77.0212 22.4347 76.3065 23.4747 75.3465 24.232C74.3865 24.9893 73.1758 25.368 71.7145 25.368C69.8692 25.368 68.3865 24.7173 67.2665 23.416V31.448L64.5785 31.784V8.152H66.8665L67.0905 10.504C67.7092 9.64 68.4452 8.97333 69.2985 8.504C70.1625 8.03467 71.1012 7.8 72.1145 7.8ZM71.4745 9.96C70.5465 9.96 69.7252 10.2427 69.0105 10.808C68.3065 11.3627 67.7252 11.9813 67.2665 12.664V21.016C67.7038 21.6667 68.2532 22.184 68.9145 22.568C69.5865 22.9413 70.3225 23.128 71.1225 23.128C72.5198 23.128 73.5705 22.5947 74.2745 21.528C74.9785 20.4613 75.3305 18.8027 75.3305 16.552C75.3305 15.08 75.1918 13.8587 74.9145 12.888C74.6372 11.9067 74.2158 11.176 73.6505 10.696C73.0852 10.2053 72.3598 9.96 71.4745 9.96ZM91.926 1.368V20.84C91.926 21.672 92.182 22.264 92.694 22.616C93.2167 22.9573 93.8887 23.128 94.71 23.128C95.222 23.128 95.7073 23.0747 96.166 22.968C96.6247 22.8613 97.0833 22.7173 97.542 22.536L98.262 24.504C97.8033 24.728 97.2327 24.9253 96.55 25.096C95.878 25.2773 95.1153 25.368 94.262 25.368C92.7687 25.368 91.558 24.9573 90.63 24.136C89.702 23.304 89.238 22.1573 89.238 20.696V3.496H84.07V1.368H91.926ZM108.266 17.528C108.319 18.8293 108.57 19.896 109.018 20.728C109.466 21.5493 110.058 22.1573 110.794 22.552C111.53 22.936 112.33 23.128 113.194 23.128C114.058 23.128 114.836 23 115.53 22.744C116.234 22.488 116.954 22.1093 117.69 21.608L118.954 23.384C118.164 24.0027 117.263 24.488 116.25 24.84C115.247 25.192 114.218 25.368 113.162 25.368C111.53 25.368 110.138 25 108.986 24.264C107.834 23.528 106.954 22.504 106.346 21.192C105.748 19.8693 105.45 18.3387 105.45 16.6C105.45 14.8933 105.754 13.3787 106.362 12.056C106.97 10.7333 107.823 9.69333 108.922 8.936C110.02 8.17867 111.316 7.8 112.81 7.8C114.228 7.8 115.45 8.136 116.474 8.808C117.498 9.46933 118.282 10.4187 118.826 11.656C119.38 12.8827 119.658 14.3493 119.658 16.056C119.658 16.344 119.652 16.616 119.642 16.872C119.631 17.1173 119.615 17.336 119.594 17.528H108.266ZM112.842 10.008C111.594 10.008 110.548 10.4507 109.706 11.336C108.874 12.2213 108.399 13.592 108.282 15.448H117.066C117.034 13.6453 116.639 12.2907 115.882 11.384C115.124 10.4667 114.111 10.008 112.842 10.008ZM159.232 13.88C159.232 11.96 159.03 10.424 158.624 9.272C158.219 8.12 157.686 7.256 157.024 6.68C156.363 6.104 155.638 5.72 154.848 5.528C154.07 5.336 153.302 5.24 152.544 5.24H149.952V22.776H152.576C153.366 22.776 154.15 22.6533 154.928 22.408C155.718 22.152 156.438 21.704 157.088 21.064C157.739 20.4133 158.256 19.512 158.64 18.36C159.035 17.1973 159.232 15.704 159.232 13.88ZM162.192 13.88C162.192 15.7147 161.995 17.2827 161.6 18.584C161.216 19.8747 160.688 20.9413 160.016 21.784C159.344 22.6267 158.576 23.2827 157.712 23.752C156.859 24.2107 155.958 24.536 155.008 24.728C154.07 24.9093 153.147 25 152.24 25H147.184V2.968H151.888C153.179 2.968 154.432 3.112 155.648 3.4C156.875 3.688 157.979 4.22133 158.96 5C159.952 5.768 160.736 6.86667 161.312 8.296C161.899 9.72533 162.192 11.5867 162.192 13.88ZM170.628 17.528C170.681 18.8293 170.932 19.896 171.38 20.728C171.828 21.5493 172.42 22.1573 173.156 22.552C173.892 22.936 174.692 23.128 175.556 23.128C176.42 23.128 177.199 23 177.892 22.744C178.596 22.488 179.316 22.1093 180.052 21.608L181.316 23.384C180.527 24.0027 179.625 24.488 178.612 24.84C177.609 25.192 176.58 25.368 175.524 25.368C173.892 25.368 172.5 25 171.348 24.264C170.196 23.528 169.316 22.504 168.708 21.192C168.111 19.8693 167.812 18.3387 167.812 16.6C167.812 14.8933 168.116 13.3787 168.724 12.056C169.332 10.7333 170.185 9.69333 171.284 8.936C172.383 8.17867 173.679 7.8 175.172 7.8C176.591 7.8 177.812 8.136 178.836 8.808C179.86 9.46933 180.644 10.4187 181.188 11.656C181.743 12.8827 182.02 14.3493 182.02 16.056C182.02 16.344 182.015 16.616 182.004 16.872C181.993 17.1173 181.977 17.336 181.956 17.528H170.628ZM175.204 10.008C173.956 10.008 172.911 10.4507 172.068 11.336C171.236 12.2213 170.761 13.592 170.644 15.448H179.428C179.396 13.6453 179.001 12.2907 178.244 11.384C177.487 10.4667 176.473 10.008 175.204 10.008ZM195.031 23.144C196.322 23.144 197.341 22.904 198.087 22.424C198.845 21.9333 199.223 21.2827 199.223 20.472C199.223 19.96 199.127 19.5173 198.935 19.144C198.754 18.7707 198.375 18.4347 197.799 18.136C197.223 17.8373 196.338 17.5387 195.143 17.24C193.981 16.952 192.967 16.6213 192.103 16.248C191.25 15.864 190.583 15.368 190.103 14.76C189.634 14.152 189.399 13.3627 189.399 12.392C189.399 11.4427 189.666 10.6267 190.199 9.944C190.743 9.25067 191.495 8.72267 192.455 8.36C193.415 7.98667 194.53 7.8 195.799 7.8C197.154 7.8 198.333 7.98133 199.335 8.344C200.349 8.696 201.207 9.13333 201.911 9.656L200.727 11.48C200.087 11.0427 199.383 10.6853 198.615 10.408C197.847 10.12 196.919 9.976 195.831 9.976C194.509 9.976 193.57 10.184 193.015 10.6C192.461 11.0053 192.183 11.5333 192.183 12.184C192.183 12.6747 192.317 13.0853 192.583 13.416C192.861 13.736 193.325 14.0293 193.975 14.296C194.626 14.552 195.522 14.8347 196.663 15.144C197.762 15.432 198.717 15.7787 199.527 16.184C200.349 16.5893 200.989 17.1227 201.447 17.784C201.906 18.4453 202.135 19.2987 202.135 20.344C202.135 21.5387 201.794 22.5093 201.111 23.256C200.429 23.992 199.543 24.5307 198.455 24.872C197.378 25.2027 196.237 25.368 195.031 25.368C193.506 25.368 192.205 25.1493 191.127 24.712C190.061 24.264 189.165 23.7253 188.439 23.096L189.975 21.32C190.637 21.864 191.394 22.3067 192.247 22.648C193.111 22.9787 194.039 23.144 195.031 23.144ZM218.619 8.152V22.872H223.371V25H210.731V22.872H215.931V10.28H210.891V8.152H218.619ZM216.475 0.263998C217.072 0.263998 217.547 0.445332 217.899 0.807999C218.262 1.17067 218.443 1.61333 218.443 2.136C218.443 2.68 218.262 3.13867 217.899 3.512C217.547 3.87467 217.072 4.056 216.475 4.056C215.91 4.056 215.446 3.87467 215.083 3.512C214.72 3.13867 214.539 2.68 214.539 2.136C214.539 1.61333 214.72 1.17067 215.083 0.807999C215.446 0.445332 215.91 0.263998 216.475 0.263998ZM244.575 6.36L245.407 8.888C244.692 9.112 243.929 9.25067 243.119 9.304C242.308 9.35733 241.428 9.384 240.479 9.384C241.449 9.832 242.18 10.4133 242.671 11.128C243.161 11.832 243.407 12.664 243.407 13.624C243.407 14.7333 243.156 15.72 242.655 16.584C242.153 17.448 241.428 18.1253 240.479 18.616C239.54 19.1067 238.404 19.352 237.071 19.352C236.505 19.352 236.031 19.3253 235.647 19.272C235.273 19.2187 234.911 19.1387 234.559 19.032C234.303 19.2027 234.089 19.4373 233.919 19.736C233.759 20.0347 233.679 20.344 233.679 20.664C233.679 21.0693 233.839 21.4053 234.159 21.672C234.479 21.9387 235.071 22.072 235.935 22.072H238.975C240.105 22.072 241.119 22.2747 242.015 22.68C242.921 23.0853 243.631 23.6293 244.143 24.312C244.665 24.9947 244.927 25.7733 244.927 26.648C244.927 28.3013 244.223 29.5707 242.815 30.456C241.417 31.3413 239.439 31.784 236.879 31.784C235.087 31.784 233.673 31.5973 232.639 31.224C231.604 30.8613 230.863 30.3013 230.415 29.544C229.977 28.7973 229.759 27.8533 229.759 26.712H232.191C232.191 27.3627 232.319 27.9013 232.575 28.328C232.831 28.7547 233.295 29.0693 233.967 29.272C234.639 29.4853 235.604 29.592 236.863 29.592C238.1 29.592 239.108 29.4853 239.887 29.272C240.676 29.0693 241.257 28.76 241.631 28.344C242.015 27.9387 242.207 27.432 242.207 26.824C242.207 26.024 241.844 25.4213 241.119 25.016C240.393 24.6107 239.487 24.408 238.399 24.408H235.391C233.94 24.408 232.868 24.088 232.175 23.448C231.492 22.808 231.151 22.072 231.151 21.24C231.151 20.696 231.305 20.168 231.615 19.656C231.935 19.144 232.399 18.6907 233.007 18.296C232.036 17.784 231.321 17.1493 230.863 16.392C230.404 15.6347 230.175 14.7173 230.175 13.64C230.175 12.4987 230.457 11.4907 231.023 10.616C231.588 9.73067 232.377 9.03733 233.391 8.536C234.404 8.03467 235.572 7.784 236.895 7.784C238.313 7.77333 239.465 7.71467 240.351 7.608C241.236 7.49067 241.993 7.32533 242.623 7.112C243.263 6.89867 243.913 6.648 244.575 6.36ZM236.895 9.752C235.54 9.752 234.537 10.12 233.887 10.856C233.247 11.5813 232.927 12.5093 232.927 13.64C232.927 14.7813 233.257 15.72 233.919 16.456C234.58 17.192 235.593 17.56 236.959 17.56C238.153 17.56 239.06 17.2133 239.679 16.52C240.308 15.8267 240.623 14.8613 240.623 13.624C240.623 12.3547 240.308 11.3947 239.679 10.744C239.06 10.0827 238.132 9.752 236.895 9.752ZM251.666 25V8.152H253.954L254.162 10.488C254.845 9.624 255.698 8.96267 256.722 8.504C257.757 8.03467 258.759 7.8 259.73 7.8C261.383 7.8 262.583 8.23733 263.33 9.112C264.087 9.98667 264.466 11.2027 264.466 12.76V25H261.778V14.744C261.778 13.592 261.714 12.664 261.586 11.96C261.458 11.2453 261.191 10.728 260.786 10.408C260.381 10.0773 259.751 9.912 258.898 9.912C258.237 9.912 257.613 10.056 257.026 10.344C256.45 10.632 255.933 10.9947 255.474 11.432C255.026 11.8587 254.653 12.2907 254.354 12.728V25H251.666Z" fill="black"/>
</svg>
